<?xml version="1.0" encoding="UTF-8"?> <svg xmlns="http://www.w3.org/2000/svg" width="100" height="100" viewBox="0 0 100 100" fill="none"><path d="M47.3192 10.311C47.2099 9.92908 47.1006 9.60175 46.882 9.38352C46.7181 9.1653 46.4996 9.05619 46.2264 9.05619C45.9532 9.05619 45.7346 9.1653 45.5707 9.38352C45.4067 9.60175 45.2428 9.92908 45.1335 10.311C45.0243 10.7474 44.9696 11.1839 44.9696 11.7294C44.9696 12.275 45.0243 12.7114 45.1335 13.1478C45.2428 13.5297 45.3521 13.8571 45.5707 14.0753C45.7346 14.2935 45.9531 14.4026 46.1717 14.4026C46.4449 14.4026 46.6635 14.2935 46.8274 14.0753C46.9913 13.8571 47.1553 13.5297 47.2645 13.1478C47.3738 12.7114 47.4285 12.275 47.4285 11.7294C47.4831 11.1839 47.4285 10.6929 47.3192 10.311ZM47.3192 10.311C47.2099 9.92908 47.1006 9.60175 46.882 9.38352C46.7181 9.1653 46.4996 9.05619 46.2264 9.05619C45.9532 9.05619 45.7346 9.1653 45.5707 9.38352C45.4067 9.60175 45.2428 9.92908 45.1335 10.311C45.0243 10.7474 44.9696 11.1839 44.9696 11.7294C44.9696 12.275 45.0243 12.7114 45.1335 13.1478C45.2428 13.5297 45.3521 13.8571 45.5707 14.0753C45.7346 14.2935 45.9531 14.4026 46.1717 14.4026C46.4449 14.4026 46.6635 14.2935 46.8274 14.0753C46.9913 13.8571 47.1553 13.5297 47.2645 13.1478C47.3738 12.7114 47.4285 12.275 47.4285 11.7294C47.4831 11.1839 47.4285 10.6929 47.3192 10.311ZM47.3192 10.311C47.2099 9.92908 47.1006 9.60175 46.882 9.38352C46.7181 9.1653 46.4996 9.05619 46.2264 9.05619C45.9532 9.05619 45.7346 9.1653 45.5707 9.38352C45.4067 9.60175 45.2428 9.92908 45.1335 10.311C45.0243 10.7474 44.9696 11.1839 44.9696 11.7294C44.9696 12.275 45.0243 12.7114 45.1335 13.1478C45.2428 13.5297 45.3521 13.8571 45.5707 14.0753C45.7346 14.2935 45.9531 14.4026 46.1717 14.4026C46.4449 14.4026 46.6635 14.2935 46.8274 14.0753C46.9913 13.8571 47.1553 13.5297 47.2645 13.1478C47.3738 12.7114 47.4285 12.275 47.4285 11.7294C47.4831 11.1839 47.4285 10.6929 47.3192 10.311ZM53.7122 10.311C53.6029 9.92908 53.4936 9.60175 53.2751 9.38352C53.1111 9.1653 52.8926 9.05619 52.6194 9.05619C52.3462 9.05619 52.1276 9.1653 51.9637 9.38352C51.7997 9.60175 51.6358 9.92908 51.5265 10.311C51.4173 10.7474 51.3626 11.1839 51.3626 11.7294C51.3626 12.275 51.4173 12.7114 51.5265 13.1478C51.6358 13.5297 51.7451 13.8571 51.9637 14.0753C52.1276 14.2935 52.3462 14.4026 52.5647 14.4026C52.8379 14.4026 53.0565 14.2935 53.2204 14.0753C53.3843 13.8571 53.5483 13.5297 53.6575 13.1478C53.7668 12.7114 53.8215 12.275 53.8215 11.7294C53.8215 11.1839 53.8215 10.6929 53.7122 10.311ZM47.3192 10.311C47.2099 9.92908 47.1006 9.60175 46.882 9.38352C46.7181 9.1653 46.4996 9.05619 46.2264 9.05619C45.9532 9.05619 45.7346 9.1653 45.5707 9.38352C45.4067 9.60175 45.2428 9.92908 45.1335 10.311C45.0243 10.7474 44.9696 11.1839 44.9696 11.7294C44.9696 12.275 45.0243 12.7114 45.1335 13.1478C45.2428 13.5297 45.3521 13.8571 45.5707 14.0753C45.7346 14.2935 45.9531 14.4026 46.1717 14.4026C46.4449 14.4026 46.6635 14.2935 46.8274 14.0753C46.9913 13.8571 47.1553 13.5297 47.2645 13.1478C47.3738 12.7114 47.4285 12.275 47.4285 11.7294C47.4831 11.1839 47.4285 10.6929 47.3192 10.311ZM53.7122 10.311C53.6029 9.92908 53.4936 9.60175 53.2751 9.38352C53.1111 9.1653 52.8926 9.05619 52.6194 9.05619C52.3462 9.05619 52.1276 9.1653 51.9637 9.38352C51.7997 9.60175 51.6358 9.92908 51.5265 10.311C51.4173 10.7474 51.3626 11.1839 51.3626 11.7294C51.3626 12.275 51.4173 12.7114 51.5265 13.1478C51.6358 13.5297 51.7451 13.8571 51.9637 14.0753C52.1276 14.2935 52.3462 14.4026 52.5647 14.4026C52.8379 14.4026 53.0565 14.2935 53.2204 14.0753C53.3843 13.8571 53.5483 13.5297 53.6575 13.1478C53.7668 12.7114 53.8215 12.275 53.8215 11.7294C53.8215 11.1839 53.8215 10.6929 53.7122 10.311ZM47.3192 10.311C47.2099 9.92908 47.1006 9.60175 46.882 9.38352C46.7181 9.1653 46.4996 9.05619 46.2264 9.05619C45.9532 9.05619 45.7346 9.1653 45.5707 9.38352C45.4067 9.60175 45.2428 9.92908 45.1335 10.311C45.0243 10.7474 44.9696 11.1839 44.9696 11.7294C44.9696 12.275 45.0243 12.7114 45.1335 13.1478C45.2428 13.5297 45.3521 13.8571 45.5707 14.0753C45.7346 14.2935 45.9531 14.4026 46.1717 14.4026C46.4449 14.4026 46.6635 14.2935 46.8274 14.0753C46.9913 13.8571 47.1553 13.5297 47.2645 13.1478C47.3738 12.7114 47.4285 12.275 47.4285 11.7294C47.4831 11.1839 47.4285 10.6929 47.3192 10.311ZM53.7122 10.311C53.6029 9.92908 53.4936 9.60175 53.2751 9.38352C53.1111 9.1653 52.8926 9.05619 52.6194 9.05619C52.3462 9.05619 52.1276 9.1653 51.9637 9.38352C51.7997 9.60175 51.6358 9.92908 51.5265 10.311C51.4173 10.7474 51.3626 11.1839 51.3626 11.7294C51.3626 12.275 51.4173 12.7114 51.5265 13.1478C51.6358 13.5297 51.7451 13.8571 51.9637 14.0753C52.1276 14.2935 52.3462 14.4026 52.5647 14.4026C52.8379 14.4026 53.0565 14.2935 53.2204 14.0753C53.3843 13.8571 53.5483 13.5297 53.6575 13.1478C53.7668 12.7114 53.8215 12.275 53.8215 11.7294C53.8215 11.1839 53.8215 10.6929 53.7122 10.311ZM47.3192 10.311C47.2099 9.92908 47.1006 9.60175 46.882 9.38352C46.7181 9.1653 46.4996 9.05619 46.2264 9.05619C45.9532 9.05619 45.7346 9.1653 45.5707 9.38352C45.4067 9.60175 45.2428 9.92908 45.1335 10.311C45.0243 10.7474 44.9696 11.1839 44.9696 11.7294C44.9696 12.275 45.0243 12.7114 45.1335 13.1478C45.2428 13.5297 45.3521 13.8571 45.5707 14.0753C45.7346 14.2935 45.9531 14.4026 46.1717 14.4026C46.4449 14.4026 46.6635 14.2935 46.8274 14.0753C46.9913 13.8571 47.1553 13.5297 47.2645 13.1478C47.3738 12.7114 47.4285 12.275 47.4285 11.7294C47.4831 11.1839 47.4285 10.6929 47.3192 10.311ZM53.7122 10.311C53.6029 9.92908 53.4936 9.60175 53.2751 9.38352C53.1111 9.1653 52.8926 9.05619 52.6194 9.05619C52.3462 9.05619 52.1276 9.1653 51.9637 9.38352C51.7997 9.60175 51.6358 9.92908 51.5265 10.311C51.4173 10.7474 51.3626 11.1839 51.3626 11.7294C51.3626 12.275 51.4173 12.7114 51.5265 13.1478C51.6358 13.5297 51.7451 13.8571 51.9637 14.0753C52.1276 14.2935 52.3462 14.4026 52.5647 14.4026C52.8379 14.4026 53.0565 14.2935 53.2204 14.0753C53.3843 13.8571 53.5483 13.5297 53.6575 13.1478C53.7668 12.7114 53.8215 12.275 53.8215 11.7294C53.8215 11.1839 53.8215 10.6929 53.7122 10.311ZM47.3192 10.311C47.2099 9.92908 47.1006 9.60175 46.882 9.38352C46.7181 9.1653 46.4996 9.05619 46.2264 9.05619C45.9532 9.05619 45.7346 9.1653 45.5707 9.38352C45.4067 9.60175 45.2428 9.92908 45.1335 10.311C45.0243 10.7474 44.9696 11.1839 44.9696 11.7294C44.9696 12.275 45.0243 12.7114 45.1335 13.1478C45.2428 13.5297 45.3521 13.8571 45.5707 14.0753C45.7346 14.2935 45.9531 14.4026 46.1717 14.4026C46.4449 14.4026 46.6635 14.2935 46.8274 14.0753C46.9913 13.8571 47.1553 13.5297 47.2645 13.1478C47.3738 12.7114 47.4285 12.275 47.4285 11.7294C47.4831 11.1839 47.4285 10.6929 47.3192 10.311ZM53.7122 10.311C53.6029 9.92908 53.4936 9.60175 53.2751 9.38352C53.1111 9.1653 52.8926 9.05619 52.6194 9.05619C52.3462 9.05619 52.1276 9.1653 51.9637 9.38352C51.7997 9.60175 51.6358 9.92908 51.5265 10.311C51.4173 10.7474 51.3626 11.1839 51.3626 11.7294C51.3626 12.275 51.4173 12.7114 51.5265 13.1478C51.6358 13.5297 51.7451 13.8571 51.9637 14.0753C52.1276 14.2935 52.3462 14.4026 52.5647 14.4026C52.8379 14.4026 53.0565 14.2935 53.2204 14.0753C53.3843 13.8571 53.5483 13.5297 53.6575 13.1478C53.7668 12.7114 53.8215 12.275 53.8215 11.7294C53.8215 11.1839 53.8215 10.6929 53.7122 10.311ZM47.3192 10.311C47.2099 9.92908 47.1006 9.60175 46.882 9.38352C46.7181 9.1653 46.4996 9.05619 46.2264 9.05619C45.9532 9.05619 45.7346 9.1653 45.5707 9.38352C45.4067 9.60175 45.2428 9.92908 45.1335 10.311C45.0243 10.7474 44.9696 11.1839 44.9696 11.7294C44.9696 12.275 45.0243 12.7114 45.1335 13.1478C45.2428 13.5297 45.3521 13.8571 45.5707 14.0753C45.7346 14.2935 45.9531 14.4026 46.1717 14.4026C46.4449 14.4026 46.6635 14.2935 46.8274 14.0753C46.9913 13.8571 47.1553 13.5297 47.2645 13.1478C47.3738 12.7114 47.4285 12.275 47.4285 11.7294C47.4831 11.1839 47.4285 10.6929 47.3192 10.311ZM53.7122 10.311C53.6029 9.92908 53.4936 9.60175 53.2751 9.38352C53.1111 9.1653 52.8926 9.05619 52.6194 9.05619C52.3462 9.05619 52.1276 9.1653 51.9637 9.38352C51.7997 9.60175 51.6358 9.92908 51.5265 10.311C51.4173 10.7474 51.3626 11.1839 51.3626 11.7294C51.3626 12.275 51.4173 12.7114 51.5265 13.1478C51.6358 13.5297 51.7451 13.8571 51.9637 14.0753C52.1276 14.2935 52.3462 14.4026 52.5647 14.4026C52.8379 14.4026 53.0565 14.2935 53.2204 14.0753C53.3843 13.8571 53.5483 13.5297 53.6575 13.1478C53.7668 12.7114 53.8215 12.275 53.8215 11.7294C53.8215 11.1839 53.8215 10.6929 53.7122 10.311ZM47.3192 10.311C47.2099 9.92908 47.1006 9.60175 46.882 9.38352C46.7181 9.1653 46.4996 9.05619 46.2264 9.05619C45.9532 9.05619 45.7346 9.1653 45.5707 9.38352C45.4067 9.60175 45.2428 9.92908 45.1335 10.311C45.0243 10.7474 44.9696 11.1839 44.9696 11.7294C44.9696 12.275 45.0243 12.7114 45.1335 13.1478C45.2428 13.5297 45.3521 13.8571 45.5707 14.0753C45.7346 14.2935 45.9531 14.4026 46.1717 14.4026C46.4449 14.4026 46.6635 14.2935 46.8274 14.0753C46.9913 13.8571 47.1553 13.5297 47.2645 13.1478C47.3738 12.7114 47.4285 12.275 47.4285 11.7294C47.4831 11.1839 47.4285 10.6929 47.3192 10.311ZM53.7122 10.311C53.6029 9.92908 53.4936 9.60175 53.2751 9.38352C53.1111 9.1653 52.8926 9.05619 52.6194 9.05619C52.3462 9.05619 52.1276 9.1653 51.9637 9.38352C51.7997 9.60175 51.6358 9.92908 51.5265 10.311C51.4173 10.7474 51.3626 11.1839 51.3626 11.7294C51.3626 12.275 51.4173 12.7114 51.5265 13.1478C51.6358 13.5297 51.7451 13.8571 51.9637 14.0753C52.1276 14.2935 52.3462 14.4026 52.5647 14.4026C52.8379 14.4026 53.0565 14.2935 53.2204 14.0753C53.3843 13.8571 53.5483 13.5297 53.6575 13.1478C53.7668 12.7114 53.8215 12.275 53.8215 11.7294C53.8215 11.1839 53.8215 10.6929 53.7122 10.311ZM47.3192 10.311C47.2099 9.92908 47.1006 9.60175 46.882 9.38352C46.7181 9.1653 46.4996 9.05619 46.2264 9.05619C45.9532 9.05619 45.7346 9.1653 45.5707 9.38352C45.4067 9.60175 45.2428 9.92908 45.1335 10.311C45.0243 10.7474 44.9696 11.1839 44.9696 11.7294C44.9696 12.275 45.0243 12.7114 45.1335 13.1478C45.2428 13.5297 45.3521 13.8571 45.5707 14.0753C45.7346 14.2935 45.9531 14.4026 46.1717 14.4026C46.4449 14.4026 46.6635 14.2935 46.8274 14.0753C46.9913 13.8571 47.1553 13.5297 47.2645 13.1478C47.3738 12.7114 47.4285 12.275 47.4285 11.7294C47.4831 11.1839 47.4285 10.6929 47.3192 10.311ZM53.7122 10.311C53.6029 9.92908 53.4936 9.60175 53.2751 9.38352C53.1111 9.1653 52.8926 9.05619 52.6194 9.05619C52.3462 9.05619 52.1276 9.1653 51.9637 9.38352C51.7997 9.60175 51.6358 9.92908 51.5265 10.311C51.4173 10.7474 51.3626 11.1839 51.3626 11.7294C51.3626 12.275 51.4173 12.7114 51.5265 13.1478C51.6358 13.5297 51.7451 13.8571 51.9637 14.0753C52.1276 14.2935 52.3462 14.4026 52.5647 14.4026C52.8379 14.4026 53.0565 14.2935 53.2204 14.0753C53.3843 13.8571 53.5483 13.5297 53.6575 13.1478C53.7668 12.7114 53.8215 12.275 53.8215 11.7294C53.8215 11.1839 53.8215 10.6929 53.7122 10.311ZM47.3192 10.311C47.2099 9.92908 47.1006 9.60175 46.882 9.38352C46.7181 9.1653 46.4996 9.05619 46.2264 9.05619C45.9532 9.05619 45.7346 9.1653 45.5707 9.38352C45.4067 9.60175 45.2428 9.92908 45.1335 10.311C45.0243 10.7474 44.9696 11.1839 44.9696 11.7294C44.9696 12.275 45.0243 12.7114 45.1335 13.1478C45.2428 13.5297 45.3521 13.8571 45.5707 14.0753C45.7346 14.2935 45.9531 14.4026 46.1717 14.4026C46.4449 14.4026 46.6635 14.2935 46.8274 14.0753C46.9913 13.8571 47.1553 13.5297 47.2645 13.1478C47.3738 12.7114 47.4285 12.275 47.4285 11.7294C47.4831 11.1839 47.4285 10.6929 47.3192 10.311ZM53.7122 10.311C53.6029 9.92908 53.4936 9.60175 53.2751 9.38352C53.1111 9.1653 52.8926 9.05619 52.6194 9.05619C52.3462 9.05619 52.1276 9.1653 51.9637 9.38352C51.7997 9.60175 51.6358 9.92908 51.5265 10.311C51.4173 10.7474 51.3626 11.1839 51.3626 11.7294C51.3626 12.275 51.4173 12.7114 51.5265 13.1478C51.6358 13.5297 51.7451 13.8571 51.9637 14.0753C52.1276 14.2935 52.3462 14.4026 52.5647 14.4026C52.8379 14.4026 53.0565 14.2935 53.2204 14.0753C53.3843 13.8571 53.5483 13.5297 53.6575 13.1478C53.7668 12.7114 53.8215 12.275 53.8215 11.7294C53.8215 11.1839 53.8215 10.6929 53.7122 10.311ZM47.3192 10.311C47.2099 9.92908 47.1006 9.60175 46.882 9.38352C46.7181 9.1653 46.4996 9.05619 46.2264 9.05619C45.9532 9.05619 45.7346 9.1653 45.5707 9.38352C45.4067 9.60175 45.2428 9.92908 45.1335 10.311C45.0243 10.7474 44.9696 11.1839 44.9696 11.7294C44.9696 12.275 45.0243 12.7114 45.1335 13.1478C45.2428 13.5297 45.3521 13.8571 45.5707 14.0753C45.7346 14.2935 45.9531 14.4026 46.1717 14.4026C46.4449 14.4026 46.6635 14.2935 46.8274 14.0753C46.9913 13.8571 47.1553 13.5297 47.2645 13.1478C47.3738 12.7114 47.4285 12.275 47.4285 11.7294C47.4831 11.1839 47.4285 10.6929 47.3192 10.311ZM53.7122 10.311C53.6029 9.92908 53.4936 9.60175 53.2751 9.38352C53.1111 9.1653 52.8926 9.05619 52.6194 9.05619C52.3462 9.05619 52.1276 9.1653 51.9637 9.38352C51.7997 9.60175 51.6358 9.92908 51.5265 10.311C51.4173 10.7474 51.3626 11.1839 51.3626 11.7294C51.3626 12.275 51.4173 12.7114 51.5265 13.1478C51.6358 13.5297 51.7451 13.8571 51.9637 14.0753C52.1276 14.2935 52.3462 14.4026 52.5647 14.4026C52.8379 14.4026 53.0565 14.2935 53.2204 14.0753C53.3843 13.8571 53.5483 13.5297 53.6575 13.1478C53.7668 12.7114 53.8215 12.275 53.8215 11.7294C53.8215 11.1839 53.8215 10.6929 53.7122 10.311ZM99.1736 40.6438C98.7364 41.0256 98.2447 41.4621 97.5343 41.844C94.6384 43.5352 92.2341 43.808 92.8898 44.299C93.5455 44.79 95.6219 43.8625 95.9497 44.6809C96.2776 45.4992 96.4962 46.5357 93.7641 48.3361C91.6877 49.6999 88.901 49.5363 89.5021 50.1909C90.1032 50.7911 92.5074 49.8636 91.8517 52.2641C91.3599 54.1189 88.6278 61.9749 79.8853 64.1571C74.5304 65.521 67.8642 65.521 62.8919 64.9755C63.2197 65.6301 63.5476 66.3393 63.8754 66.994C67.7549 75.0136 91.6331 61.3748 84.3658 70.8129C82.672 72.9951 82.2895 75.9411 83.4916 78.3961C84.4751 80.3601 83.273 82.4332 79.3935 83.4152C77.645 83.8516 76.279 85.2155 75.7325 86.9067C74.5304 90.7256 63.8754 91.162 57.9195 80.5783C54.3132 74.0862 41.5272 81.0693 36.5549 67.485C32.0743 55.3191 35.626 50.3546 35.4621 47.736C35.1889 43.0987 32.0197 42.2804 31.0908 43.0987C29.834 44.1899 29.4515 44.3535 28.7959 44.4081C28.3587 44.4626 28.0309 44.0262 28.1402 43.6443C28.3587 42.9896 28.4134 42.3895 28.4134 41.7349C28.4134 40.6438 28.1948 39.4981 28.0855 38.3524C27.9762 37.0977 28.468 35.461 29.3969 34.2062C30.8722 32.2968 33.7682 28.8052 43.0025 37.425C45.0243 39.3344 46.9367 41.353 48.7398 43.4261C52.7833 39.6072 56.4989 35.3519 59.5588 30.8238C61.4166 28.0415 63.0012 24.9864 63.9301 21.7676C64.3126 20.3492 65.0775 14.6754 67.4271 17.7851C68.356 18.9853 68.957 21.6585 68.356 23.1315C67.8096 24.4954 69.4488 21.6039 70.4323 22.3131C71.4159 23.0224 70.4324 26.0229 70.6509 26.9504C70.8695 27.9324 71.7984 26.1866 72.618 26.2411C73.4922 26.2957 74.3119 27.7687 73.5469 29.078C72.7819 30.3873 73.9294 31.3148 74.5851 30.7147C74.8036 30.4965 75.0222 30.4965 75.2408 30.6601C72.8912 31.9149 70.4324 33.0606 67.9735 34.2062C64.0394 36.0065 60.433 38.2433 57.0453 40.7529C55.3514 42.0076 53.7122 43.3715 52.1822 44.79C51.7451 45.1718 51.308 45.6083 50.8708 46.0447C50.9801 46.1538 51.0894 46.3175 51.1987 46.4266C55.0782 43.317 61.9084 38.5161 69.2303 36.2248C71.1973 35.6247 73.1644 34.5881 75.0222 33.3879C81.0874 29.4053 86.2236 23.0224 89.065 18.8762C88.8464 18.5488 88.5732 18.2761 88.3 17.9487C79.2296 6.92853 65.4054 0 50.0512 0C22.4028 0 0 22.3677 0 49.9727C0 68.5215 10.1086 84.7245 25.1349 93.2897C28.1402 95.0355 31.364 96.4539 34.7517 97.545C31.364 93.8352 27.0473 88.4888 24.8617 83.3061C23.0585 83.6879 21.4193 83.7971 19.7801 83.5788C18.9605 83.4697 18.1408 83.2515 17.3759 82.9787C16.6109 82.706 15.8459 82.3241 15.1356 81.8876C14.4253 81.4512 13.7696 80.9056 13.1685 80.251C12.8407 79.9236 12.5674 79.5963 12.2942 79.269C12.021 78.9416 11.7478 78.5597 11.4746 78.1779C10.9829 77.4141 10.5457 76.5412 10.1632 75.6138C9.94468 75.1773 9.78076 74.6863 9.67148 74.1953C9.50755 73.7043 9.39827 73.1588 9.28898 72.6678C11.2014 72.6132 12.8953 72.8314 14.4799 73.3224C16.0645 73.7589 17.5398 74.4681 18.7965 75.4501C19.3976 75.9411 20.0533 76.4321 20.6543 76.9776C21.2554 77.5232 21.8018 78.1779 22.2936 78.8325C22.6214 79.3235 23.0039 79.8145 23.3864 80.3055C23.3864 80.251 23.3317 80.1964 23.3317 80.1964C23.1132 79.7054 22.84 79.2144 22.6214 78.7234C22.1843 77.7414 21.7471 76.7594 21.31 75.7774C21.0915 75.2864 20.9275 74.7954 20.709 74.3044C20.6543 74.1408 20.5997 74.0316 20.545 73.868C20.3811 73.4315 20.2172 73.0496 20.0533 72.6132C19.8894 72.1768 19.7254 71.7949 19.5615 71.3584C19.3976 70.8674 19.2337 70.3764 19.0697 69.8854C18.7965 68.958 18.4687 68.0306 18.1955 67.1577C16.447 67.1031 14.8077 66.8303 13.2778 66.2302C12.5128 65.9574 11.7478 65.5756 11.0375 65.1937C10.7097 64.9755 10.3272 64.7572 9.99932 64.4845C9.67147 64.2662 9.39827 63.9935 9.07042 63.7207C8.46937 63.1751 7.92296 62.5205 7.43119 61.8658C6.93942 61.1566 6.50229 60.4474 6.17444 59.629C5.8466 58.8107 5.57339 57.9924 5.35483 57.0649C5.24555 56.6285 5.13627 56.1375 5.13627 55.701C5.08163 55.21 5.08162 54.719 5.08162 54.228C6.93942 54.5008 8.57865 54.9918 10.054 55.701C11.5293 56.4103 12.786 57.3923 13.8242 58.4834C14.0974 58.7561 14.3706 59.0289 14.5892 59.3562C14.8077 59.6836 15.0809 59.9564 15.2995 60.2837C15.7913 60.9384 16.1738 61.6476 16.5562 62.3568C16.7202 62.7387 16.8841 63.066 17.1027 63.4479C17.1573 63.557 17.2119 63.7207 17.2666 63.8298C17.048 63.066 16.8841 62.3022 16.7202 61.5385C16.5016 60.6656 16.283 59.7927 16.1191 58.9198C16.0098 58.3197 15.9006 57.7196 15.7913 57.1195C15.7366 56.683 15.6273 56.2466 15.5727 55.8101C15.2449 53.9553 15.0263 52.2095 14.8624 50.5728C13.1685 50.1909 11.6386 49.6454 10.2725 48.8816C8.85186 48.0633 7.59512 47.0813 6.66622 45.8265C6.17445 45.2264 5.79196 44.5717 5.40947 43.8625C5.24555 43.4806 5.08162 43.1533 4.9177 42.7714C4.80842 42.3895 4.69914 42.0076 4.58986 41.6258C4.20737 40.0436 4.09808 38.2979 4.53521 36.443C6.33837 36.8794 7.86832 37.5887 9.12507 38.5161C10.3818 39.389 11.4746 40.4801 12.2942 41.6803C13.1139 42.8805 13.7696 44.299 14.2067 45.772C14.316 46.1538 14.4252 46.5357 14.4799 46.9176C14.4799 47.0267 14.5345 47.1358 14.5345 47.245C14.4252 45.3901 14.316 43.7534 14.316 42.335C14.316 41.353 14.316 40.4255 14.316 39.6618C14.2613 38.898 14.3706 38.2433 14.3706 37.6978C14.3706 37.6432 14.3706 37.6432 14.3706 37.5887C14.0974 37.2068 13.8788 36.8249 13.6603 36.443C13.3324 35.7338 12.9499 35.0791 12.7314 34.3699C12.5128 33.6607 12.3489 33.006 12.2396 32.2968C12.185 31.9694 12.1303 31.6421 12.1303 31.2602C12.1303 31.0966 12.1303 30.9329 12.1303 30.7692C12.1303 30.6056 12.1303 30.4419 12.185 30.2782C12.3489 28.9689 12.7314 27.6596 13.4417 26.5139C14.2067 25.3682 15.2995 24.2771 16.6655 23.4043C17.6491 24.8227 18.2501 26.132 18.578 27.4414C18.9058 28.7507 19.0151 30.0055 18.7965 31.2057C18.7419 31.3693 18.7419 31.533 18.6873 31.6967C18.6326 31.8603 18.6326 32.024 18.578 32.1331C18.5233 32.4604 18.414 32.7332 18.3048 33.0606C18.0862 33.6607 17.813 34.2608 17.4851 34.8609C17.1573 35.461 16.7748 36.0611 16.3377 36.6612C16.1191 36.9885 15.8459 37.3704 15.5727 37.6978C15.5727 37.7523 15.5727 37.7523 15.5727 37.8069C15.5727 38.3524 15.5181 39.0071 15.5181 39.7709C15.5181 40.5346 15.5181 41.4075 15.5181 42.3895C15.5727 42.0076 15.682 41.6803 15.7366 41.2984C15.9006 40.6438 16.0645 40.0982 16.3377 39.5526C16.6109 39.0071 16.9387 38.5161 17.3212 38.0251C18.0316 37.0977 19.0151 36.3884 20.1079 35.8429C21.2554 35.3519 22.6214 35.0245 24.206 34.97C24.2606 35.2973 24.2606 35.6247 24.2606 35.952C24.2606 36.2793 24.2606 36.6067 24.2606 36.8794C24.206 37.4795 24.0967 38.0797 23.9328 38.6252C23.8782 38.898 23.7689 39.1708 23.605 39.389C23.4957 39.6618 23.3864 39.88 23.2225 40.1528C22.9493 40.6438 22.6214 41.0802 22.2389 41.5166C20.709 43.2079 18.4687 44.4626 15.682 45.281C15.8459 47.7905 16.1191 50.7911 16.6109 54.1189C16.6109 53.737 16.6655 53.3552 16.6655 52.9733C16.7748 52.2095 16.8841 51.5003 17.1027 50.8456C17.3212 50.1364 17.5944 49.5363 17.9769 48.9362C18.3048 48.3361 18.7419 47.7905 19.2337 47.3541C19.7254 46.8631 20.3265 46.4266 20.9275 46.0447C22.1843 45.281 23.7142 44.7354 25.5174 44.4626C25.6813 45.2264 25.7906 45.9356 25.7906 46.6448C25.8452 47.3541 25.7906 48.0087 25.6813 48.6634C25.572 49.3181 25.3535 49.9182 25.0803 50.5183C24.8617 51.1184 24.5339 51.6639 24.1514 52.2641C22.6214 54.4463 20.2718 56.3011 17.1573 57.7196C17.2119 58.1015 17.3212 58.4288 17.3759 58.8107C17.5398 59.629 17.7584 60.5019 17.9769 61.3748C18.0862 61.8658 18.1955 62.3568 18.3594 62.8478C18.4687 63.2842 18.578 63.6661 18.6873 64.1026C18.9605 64.9755 19.179 65.8483 19.4522 66.7758C19.7254 67.7032 20.1079 68.6307 20.3811 69.5581C20.4904 69.8309 20.5997 70.1582 20.709 70.431C20.709 70.3764 20.709 70.2673 20.6543 70.2128C20.5997 69.7763 20.545 69.3944 20.4904 69.0125C20.4358 68.1942 20.4358 67.4304 20.4904 66.7212C20.5997 65.9574 20.7636 65.2482 20.9822 64.5936C21.9111 61.9204 24.206 59.8472 27.703 58.4834C28.0309 59.1926 28.2494 59.9018 28.4134 60.611C28.5773 61.3202 28.6866 61.9749 28.6866 62.6296C28.6866 62.9569 28.6866 63.2842 28.6319 63.6116C28.6319 63.7752 28.5773 63.9389 28.5773 64.1026C28.5773 64.2662 28.5227 64.4299 28.5227 64.5936C28.4134 65.2482 28.1948 65.9029 27.9216 66.5576C27.6484 67.2122 27.3205 67.8669 26.8834 68.467C26.5009 69.1217 26.0638 69.7218 25.5174 70.3219C24.5339 71.4675 23.3317 72.6132 21.9657 73.6498V73.7043C22.1843 74.1953 22.3482 74.6863 22.5668 75.1227C23.0039 76.1047 23.441 77.0322 23.8782 78.0142C23.9874 78.287 24.0967 78.5052 24.206 78.778C24.4246 79.1598 24.5885 79.5417 24.8071 79.9236C24.971 80.251 25.1349 80.5783 25.2988 80.9056C26.1184 82.5423 27.0473 84.1789 28.0309 85.761C28.0309 85.6519 27.9762 85.5428 27.9216 85.4337C27.7577 85.0518 27.6484 84.6699 27.5391 84.2881C27.3205 83.5243 27.1566 82.7605 27.102 81.9967C27.0473 81.233 27.102 80.4692 27.2113 79.7054C27.5937 76.7594 29.5062 74.0862 32.7846 71.8494C33.2764 72.5041 33.6043 73.1588 33.8775 73.8134C34.2053 74.4681 34.4239 75.1227 34.5332 75.7774C34.7517 77.1413 34.8064 78.5052 34.4785 79.9236C34.3146 80.6328 34.096 81.3966 33.8228 82.1058C33.5496 82.8696 33.2218 83.5788 32.8393 84.3426C32.0743 85.8156 31.1454 87.234 29.9433 88.707C30.9815 90.2891 34.096 94.2171 34.096 94.2171C34.861 95.09 36.7734 96.9995 38.4127 98.6361C39.7241 98.9635 41.0355 99.1817 42.3468 99.3999C43.5489 99.5636 44.751 99.7272 45.9532 99.8363C47.2645 99.9454 48.6306 100 49.942 100C50.543 100 51.1441 100 51.7451 99.9454C54.0947 99.8909 56.335 99.6181 58.5752 99.2362C60.6516 98.8543 62.6187 98.4179 64.5858 97.7632C64.695 97.7087 64.859 97.7087 64.9682 97.6541C85.2947 91.2711 99.9932 72.3404 99.9932 49.9727C100.048 46.754 99.7746 43.6443 99.1736 40.6438ZM56.8814 12.5477C57.0999 12.3295 57.5371 12.3295 57.8103 12.5477C57.9195 12.6568 57.9742 12.8205 57.9742 12.9842C57.9742 13.257 58.0288 13.4752 58.1381 13.6934C58.2474 13.9116 58.4113 14.0753 58.6299 14.1844C59.067 14.4026 59.6134 14.4026 59.9959 14.1844C60.2145 14.0753 60.3784 13.9116 60.4877 13.6934C60.597 13.4752 60.6516 13.257 60.6516 12.9842C60.6516 12.7114 60.597 12.4932 60.4877 12.275C60.3784 12.0567 60.2145 11.8931 59.9959 11.784C59.7773 11.6749 59.5588 11.6203 59.2856 11.6203H57.6463C57.4824 11.6203 57.3185 11.5657 57.2092 11.4566C57.0999 11.3475 57.0453 11.1839 57.0453 11.0202V8.40153C57.0453 8.23786 57.0999 8.0742 57.2092 7.96508C57.3185 7.85597 57.4824 7.74686 57.6463 7.74686H60.9248C61.0887 7.74686 61.2527 7.80142 61.3619 7.96508C61.4712 8.0742 61.5259 8.23786 61.5259 8.40153C61.5259 8.56519 61.4712 8.72886 61.3619 8.83797C61.2527 8.94708 61.0887 9.05619 60.9248 9.05619H58.302V10.4201H59.2856C59.7773 10.4201 60.2145 10.5292 60.6516 10.7474C61.0341 10.9656 61.3619 11.293 61.5805 11.6748C61.7991 12.0567 61.9083 12.4932 61.9083 13.0387C61.9083 13.5297 61.7991 13.9662 61.5805 14.3481C61.3619 14.73 61.0341 15.0573 60.6516 15.2755C60.2691 15.4937 59.832 15.6028 59.2856 15.6028C58.7938 15.6028 58.3567 15.4937 57.9742 15.2755C57.5917 15.0573 57.2639 14.73 57.0453 14.3481C56.8267 13.9662 56.7174 13.5297 56.7174 13.0387C56.7174 12.8205 56.7721 12.7114 56.8814 12.5477ZM50.4884 9.60175C50.7069 9.00164 50.9801 8.56519 51.308 8.23786C51.6905 7.91053 52.1276 7.74686 52.674 7.74686C53.2204 7.74686 53.6575 7.91053 54.04 8.23786C54.4225 8.56519 54.6957 9.00164 54.8596 9.60175C55.0236 10.2019 55.1329 10.8565 55.1329 11.6748C55.1329 12.4932 55.0236 13.1478 54.8596 13.748C54.6411 14.3481 54.3679 14.7845 54.04 15.1118C53.6575 15.4392 53.2204 15.6028 52.674 15.6028C52.1276 15.6028 51.6905 15.4392 51.308 15.1118C50.9255 14.7845 50.6523 14.3481 50.4884 13.748C50.3244 13.1478 50.2152 12.4386 50.2152 11.6748C50.2152 10.9111 50.2698 10.2019 50.4884 9.60175ZM44.0954 9.60175C44.2593 9.00164 44.5871 8.56519 44.915 8.23786C45.2975 7.91053 45.7346 7.74686 46.281 7.74686C46.8274 7.74686 47.2645 7.91053 47.647 8.23786C48.0295 8.56519 48.3027 9.00164 48.4666 9.60175C48.6306 10.2019 48.7398 10.8565 48.7398 11.6748C48.7398 12.4932 48.6306 13.1478 48.4666 13.748C48.3027 14.3481 47.9749 14.7845 47.647 15.1118C47.2645 15.4392 46.8274 15.6028 46.281 15.6028C45.7346 15.6028 45.2975 15.4392 44.915 15.1118C44.5325 14.7845 44.2593 14.3481 44.0954 13.748C43.9314 13.1478 43.8222 12.4386 43.8222 11.6748C43.8222 10.9111 43.9314 10.2019 44.0954 9.60175ZM40.8715 9.54719C40.8169 9.38352 40.653 9.21986 40.489 9.11075C40.3251 9.00164 40.1066 8.94708 39.888 8.94708C39.6694 8.94708 39.4509 9.00164 39.2869 9.11075C39.123 9.21986 38.9591 9.38352 38.8498 9.54719C38.7405 9.76541 38.6859 9.92908 38.6859 10.2019C38.6859 10.3655 38.6312 10.5292 38.522 10.6383C38.3034 10.8565 37.8663 10.9111 37.5931 10.6383C37.4838 10.5292 37.4291 10.3655 37.4291 10.2019C37.4291 9.76541 37.5384 9.32897 37.757 8.94708C37.9756 8.56519 38.2488 8.29242 38.6313 8.0742C39.0137 7.85597 39.3962 7.74686 39.888 7.74686C40.3251 7.74686 40.7623 7.85597 41.0901 8.0742C41.4179 8.29242 41.6912 8.56519 41.9097 8.94708C42.0736 9.32897 42.1829 9.76541 42.1829 10.2564C42.1829 10.4746 42.1283 10.6929 42.019 10.9656C41.9097 11.1839 41.8004 11.4021 41.6911 11.6203C41.5272 11.8385 41.4179 12.0022 41.254 12.1658L39.2323 14.4572H41.6911C41.8551 14.4572 42.019 14.5117 42.1283 14.6208C42.2376 14.73 42.2922 14.8936 42.2922 15.0573C42.2922 15.2209 42.2376 15.3846 42.1283 15.4937C42.019 15.6028 41.8551 15.7119 41.6911 15.7119H38.0848C37.9209 15.7119 37.757 15.6574 37.6477 15.4937C37.5384 15.3846 37.4838 15.2209 37.4838 15.0573C37.4838 14.8936 37.5384 14.73 37.6477 14.6208L40.3798 11.4021C40.5437 11.1839 40.7076 10.9656 40.8169 10.802C40.9262 10.6383 40.9808 10.4746 40.9808 10.311C41.0355 9.92908 40.9808 9.71086 40.8715 9.54719ZM52.0183 14.0753C52.1822 14.2935 52.4008 14.4026 52.6194 14.4026C52.8926 14.4026 53.1111 14.2935 53.2751 14.0753C53.439 13.8571 53.6029 13.5297 53.7122 13.1478C53.8215 12.7114 53.8761 12.275 53.8761 11.7294C53.8761 11.1839 53.8215 10.7474 53.7122 10.311C53.6029 9.92908 53.4936 9.60175 53.2751 9.38352C53.1111 9.1653 52.8926 9.05619 52.6194 9.05619C52.3462 9.05619 52.1276 9.1653 51.9637 9.38352C51.7997 9.60175 51.6358 9.92908 51.5265 10.311C51.4173 10.7474 51.3626 11.1839 51.3626 11.7294C51.3626 12.275 51.4173 12.7114 51.5265 13.1478C51.6905 13.5297 51.8544 13.8025 52.0183 14.0753ZM45.6799 14.0753C45.8439 14.2935 46.0624 14.4026 46.281 14.4026C46.5542 14.4026 46.7728 14.2935 46.9367 14.0753C47.1006 13.8571 47.2645 13.5297 47.3738 13.1478C47.4831 12.7114 47.5377 12.275 47.5377 11.7294C47.5377 11.1839 47.4831 10.7474 47.3738 10.311C47.2645 9.92908 47.1553 9.60175 46.9367 9.38352C46.7728 9.1653 46.5542 9.05619 46.281 9.05619C46.0078 9.05619 45.7892 9.1653 45.6253 9.38352C45.4614 9.60175 45.2975 9.92908 45.1882 10.311C45.0789 10.7474 45.0243 11.1839 45.0243 11.7294C45.0243 12.275 45.0789 12.7114 45.1882 13.1478C45.3521 13.5297 45.4614 13.8025 45.6799 14.0753ZM53.7122 10.311C53.6029 9.92908 53.4936 9.60175 53.2751 9.38352C53.1111 9.1653 52.8926 9.05619 52.6194 9.05619C52.3462 9.05619 52.1276 9.1653 51.9637 9.38352C51.7997 9.60175 51.6358 9.92908 51.5265 10.311C51.4173 10.7474 51.3626 11.1839 51.3626 11.7294C51.3626 12.275 51.4173 12.7114 51.5265 13.1478C51.6358 13.5297 51.7451 13.8571 51.9637 14.0753C52.1276 14.2935 52.3462 14.4026 52.5647 14.4026C52.8379 14.4026 53.0565 14.2935 53.2204 14.0753C53.3843 13.8571 53.5483 13.5297 53.6575 13.1478C53.7668 12.7114 53.8215 12.275 53.8215 11.7294C53.8215 11.1839 53.8215 10.6929 53.7122 10.311ZM47.3192 10.311C47.2099 9.92908 47.1006 9.60175 46.882 9.38352C46.7181 9.1653 46.4996 9.05619 46.2264 9.05619C45.9532 9.05619 45.7346 9.1653 45.5707 9.38352C45.4067 9.60175 45.2428 9.92908 45.1335 10.311C45.0243 10.7474 44.9696 11.1839 44.9696 11.7294C44.9696 12.275 45.0243 12.7114 45.1335 13.1478C45.2428 13.5297 45.3521 13.8571 45.5707 14.0753C45.7346 14.2935 45.9531 14.4026 46.1717 14.4026C46.4449 14.4026 46.6635 14.2935 46.8274 14.0753C46.9913 13.8571 47.1553 13.5297 47.2645 13.1478C47.3738 12.7114 47.4285 12.275 47.4285 11.7294C47.4831 11.1839 47.4285 10.6929 47.3192 10.311ZM53.7122 10.311C53.6029 9.92908 53.4936 9.60175 53.2751 9.38352C53.1111 9.1653 52.8926 9.05619 52.6194 9.05619C52.3462 9.05619 52.1276 9.1653 51.9637 9.38352C51.7997 9.60175 51.6358 9.92908 51.5265 10.311C51.4173 10.7474 51.3626 11.1839 51.3626 11.7294C51.3626 12.275 51.4173 12.7114 51.5265 13.1478C51.6358 13.5297 51.7451 13.8571 51.9637 14.0753C52.1276 14.2935 52.3462 14.4026 52.5647 14.4026C52.8379 14.4026 53.0565 14.2935 53.2204 14.0753C53.3843 13.8571 53.5483 13.5297 53.6575 13.1478C53.7668 12.7114 53.8215 12.275 53.8215 11.7294C53.8215 11.1839 53.8215 10.6929 53.7122 10.311ZM47.3192 10.311C47.2099 9.92908 47.1006 9.60175 46.882 9.38352C46.7181 9.1653 46.4996 9.05619 46.2264 9.05619C45.9532 9.05619 45.7346 9.1653 45.5707 9.38352C45.4067 9.60175 45.2428 9.92908 45.1335 10.311C45.0243 10.7474 44.9696 11.1839 44.9696 11.7294C44.9696 12.275 45.0243 12.7114 45.1335 13.1478C45.2428 13.5297 45.3521 13.8571 45.5707 14.0753C45.7346 14.2935 45.9531 14.4026 46.1717 14.4026C46.4449 14.4026 46.6635 14.2935 46.8274 14.0753C46.9913 13.8571 47.1553 13.5297 47.2645 13.1478C47.3738 12.7114 47.4285 12.275 47.4285 11.7294C47.4831 11.1839 47.4285 10.6929 47.3192 10.311ZM53.7122 10.311C53.6029 9.92908 53.4936 9.60175 53.2751 9.38352C53.1111 9.1653 52.8926 9.05619 52.6194 9.05619C52.3462 9.05619 52.1276 9.1653 51.9637 9.38352C51.7997 9.60175 51.6358 9.92908 51.5265 10.311C51.4173 10.7474 51.3626 11.1839 51.3626 11.7294C51.3626 12.275 51.4173 12.7114 51.5265 13.1478C51.6358 13.5297 51.7451 13.8571 51.9637 14.0753C52.1276 14.2935 52.3462 14.4026 52.5647 14.4026C52.8379 14.4026 53.0565 14.2935 53.2204 14.0753C53.3843 13.8571 53.5483 13.5297 53.6575 13.1478C53.7668 12.7114 53.8215 12.275 53.8215 11.7294C53.8215 11.1839 53.8215 10.6929 53.7122 10.311ZM47.3192 10.311C47.2099 9.92908 47.1006 9.60175 46.882 9.38352C46.7181 9.1653 46.4996 9.05619 46.2264 9.05619C45.9532 9.05619 45.7346 9.1653 45.5707 9.38352C45.4067 9.60175 45.2428 9.92908 45.1335 10.311C45.0243 10.7474 44.9696 11.1839 44.9696 11.7294C44.9696 12.275 45.0243 12.7114 45.1335 13.1478C45.2428 13.5297 45.3521 13.8571 45.5707 14.0753C45.7346 14.2935 45.9531 14.4026 46.1717 14.4026C46.4449 14.4026 46.6635 14.2935 46.8274 14.0753C46.9913 13.8571 47.1553 13.5297 47.2645 13.1478C47.3738 12.7114 47.4285 12.275 47.4285 11.7294C47.4831 11.1839 47.4285 10.6929 47.3192 10.311ZM53.7122 10.311C53.6029 9.92908 53.4936 9.60175 53.2751 9.38352C53.1111 9.1653 52.8926 9.05619 52.6194 9.05619C52.3462 9.05619 52.1276 9.1653 51.9637 9.38352C51.7997 9.60175 51.6358 9.92908 51.5265 10.311C51.4173 10.7474 51.3626 11.1839 51.3626 11.7294C51.3626 12.275 51.4173 12.7114 51.5265 13.1478C51.6358 13.5297 51.7451 13.8571 51.9637 14.0753C52.1276 14.2935 52.3462 14.4026 52.5647 14.4026C52.8379 14.4026 53.0565 14.2935 53.2204 14.0753C53.3843 13.8571 53.5483 13.5297 53.6575 13.1478C53.7668 12.7114 53.8215 12.275 53.8215 11.7294C53.8215 11.1839 53.8215 10.6929 53.7122 10.311ZM47.3192 10.311C47.2099 9.92908 47.1006 9.60175 46.882 9.38352C46.7181 9.1653 46.4996 9.05619 46.2264 9.05619C45.9532 9.05619 45.7346 9.1653 45.5707 9.38352C45.4067 9.60175 45.2428 9.92908 45.1335 10.311C45.0243 10.7474 44.9696 11.1839 44.9696 11.7294C44.9696 12.275 45.0243 12.7114 45.1335 13.1478C45.2428 13.5297 45.3521 13.8571 45.5707 14.0753C45.7346 14.2935 45.9531 14.4026 46.1717 14.4026C46.4449 14.4026 46.6635 14.2935 46.8274 14.0753C46.9913 13.8571 47.1553 13.5297 47.2645 13.1478C47.3738 12.7114 47.4285 12.275 47.4285 11.7294C47.4831 11.1839 47.4285 10.6929 47.3192 10.311ZM53.7122 10.311C53.6029 9.92908 53.4936 9.60175 53.2751 9.38352C53.1111 9.1653 52.8926 9.05619 52.6194 9.05619C52.3462 9.05619 52.1276 9.1653 51.9637 9.38352C51.7997 9.60175 51.6358 9.92908 51.5265 10.311C51.4173 10.7474 51.3626 11.1839 51.3626 11.7294C51.3626 12.275 51.4173 12.7114 51.5265 13.1478C51.6358 13.5297 51.7451 13.8571 51.9637 14.0753C52.1276 14.2935 52.3462 14.4026 52.5647 14.4026C52.8379 14.4026 53.0565 14.2935 53.2204 14.0753C53.3843 13.8571 53.5483 13.5297 53.6575 13.1478C53.7668 12.7114 53.8215 12.275 53.8215 11.7294C53.8215 11.1839 53.8215 10.6929 53.7122 10.311ZM47.3192 10.311C47.2099 9.92908 47.1006 9.60175 46.882 9.38352C46.7181 9.1653 46.4996 9.05619 46.2264 9.05619C45.9532 9.05619 45.7346 9.1653 45.5707 9.38352C45.4067 9.60175 45.2428 9.92908 45.1335 10.311C45.0243 10.7474 44.9696 11.1839 44.9696 11.7294C44.9696 12.275 45.0243 12.7114 45.1335 13.1478C45.2428 13.5297 45.3521 13.8571 45.5707 14.0753C45.7346 14.2935 45.9531 14.4026 46.1717 14.4026C46.4449 14.4026 46.6635 14.2935 46.8274 14.0753C46.9913 13.8571 47.1553 13.5297 47.2645 13.1478C47.3738 12.7114 47.4285 12.275 47.4285 11.7294C47.4831 11.1839 47.4285 10.6929 47.3192 10.311ZM53.7122 10.311C53.6029 9.92908 53.4936 9.60175 53.2751 9.38352C53.1111 9.1653 52.8926 9.05619 52.6194 9.05619C52.3462 9.05619 52.1276 9.1653 51.9637 9.38352C51.7997 9.60175 51.6358 9.92908 51.5265 10.311C51.4173 10.7474 51.3626 11.1839 51.3626 11.7294C51.3626 12.275 51.4173 12.7114 51.5265 13.1478C51.6358 13.5297 51.7451 13.8571 51.9637 14.0753C52.1276 14.2935 52.3462 14.4026 52.5647 14.4026C52.8379 14.4026 53.0565 14.2935 53.2204 14.0753C53.3843 13.8571 53.5483 13.5297 53.6575 13.1478C53.7668 12.7114 53.8215 12.275 53.8215 11.7294C53.8215 11.1839 53.8215 10.6929 53.7122 10.311ZM47.3192 10.311C47.2099 9.92908 47.1006 9.60175 46.882 9.38352C46.7181 9.1653 46.4996 9.05619 46.2264 9.05619C45.9532 9.05619 45.7346 9.1653 45.5707 9.38352C45.4067 9.60175 45.2428 9.92908 45.1335 10.311C45.0243 10.7474 44.9696 11.1839 44.9696 11.7294C44.9696 12.275 45.0243 12.7114 45.1335 13.1478C45.2428 13.5297 45.3521 13.8571 45.5707 14.0753C45.7346 14.2935 45.9531 14.4026 46.1717 14.4026C46.4449 14.4026 46.6635 14.2935 46.8274 14.0753C46.9913 13.8571 47.1553 13.5297 47.2645 13.1478C47.3738 12.7114 47.4285 12.275 47.4285 11.7294C47.4831 11.1839 47.4285 10.6929 47.3192 10.311ZM53.7122 10.311C53.6029 9.92908 53.4936 9.60175 53.2751 9.38352C53.1111 9.1653 52.8926 9.05619 52.6194 9.05619C52.3462 9.05619 52.1276 9.1653 51.9637 9.38352C51.7997 9.60175 51.6358 9.92908 51.5265 10.311C51.4173 10.7474 51.3626 11.1839 51.3626 11.7294C51.3626 12.275 51.4173 12.7114 51.5265 13.1478C51.6358 13.5297 51.7451 13.8571 51.9637 14.0753C52.1276 14.2935 52.3462 14.4026 52.5647 14.4026C52.8379 14.4026 53.0565 14.2935 53.2204 14.0753C53.3843 13.8571 53.5483 13.5297 53.6575 13.1478C53.7668 12.7114 53.8215 12.275 53.8215 11.7294C53.8215 11.1839 53.8215 10.6929 53.7122 10.311ZM47.3192 10.311C47.2099 9.92908 47.1006 9.60175 46.882 9.38352C46.7181 9.1653 46.4996 9.05619 46.2264 9.05619C45.9532 9.05619 45.7346 9.1653 45.5707 9.38352C45.4067 9.60175 45.2428 9.92908 45.1335 10.311C45.0243 10.7474 44.9696 11.1839 44.9696 11.7294C44.9696 12.275 45.0243 12.7114 45.1335 13.1478C45.2428 13.5297 45.3521 13.8571 45.5707 14.0753C45.7346 14.2935 45.9531 14.4026 46.1717 14.4026C46.4449 14.4026 46.6635 14.2935 46.8274 14.0753C46.9913 13.8571 47.1553 13.5297 47.2645 13.1478C47.3738 12.7114 47.4285 12.275 47.4285 11.7294C47.4831 11.1839 47.4285 10.6929 47.3192 10.311ZM53.7122 10.311C53.6029 9.92908 53.4936 9.60175 53.2751 9.38352C53.1111 9.1653 52.8926 9.05619 52.6194 9.05619C52.3462 9.05619 52.1276 9.1653 51.9637 9.38352C51.7997 9.60175 51.6358 9.92908 51.5265 10.311C51.4173 10.7474 51.3626 11.1839 51.3626 11.7294C51.3626 12.275 51.4173 12.7114 51.5265 13.1478C51.6358 13.5297 51.7451 13.8571 51.9637 14.0753C52.1276 14.2935 52.3462 14.4026 52.5647 14.4026C52.8379 14.4026 53.0565 14.2935 53.2204 14.0753C53.3843 13.8571 53.5483 13.5297 53.6575 13.1478C53.7668 12.7114 53.8215 12.275 53.8215 11.7294C53.8215 11.1839 53.8215 10.6929 53.7122 10.311ZM47.3192 10.311C47.2099 9.92908 47.1006 9.60175 46.882 9.38352C46.7181 9.1653 46.4996 9.05619 46.2264 9.05619C45.9532 9.05619 45.7346 9.1653 45.5707 9.38352C45.4067 9.60175 45.2428 9.92908 45.1335 10.311C45.0243 10.7474 44.9696 11.1839 44.9696 11.7294C44.9696 12.275 45.0243 12.7114 45.1335 13.1478C45.2428 13.5297 45.3521 13.8571 45.5707 14.0753C45.7346 14.2935 45.9531 14.4026 46.1717 14.4026C46.4449 14.4026 46.6635 14.2935 46.8274 14.0753C46.9913 13.8571 47.1553 13.5297 47.2645 13.1478C47.3738 12.7114 47.4285 12.275 47.4285 11.7294C47.4831 11.1839 47.4285 10.6929 47.3192 10.311ZM53.7122 10.311C53.6029 9.92908 53.4936 9.60175 53.2751 9.38352C53.1111 9.1653 52.8926 9.05619 52.6194 9.05619C52.3462 9.05619 52.1276 9.1653 51.9637 9.38352C51.7997 9.60175 51.6358 9.92908 51.5265 10.311C51.4173 10.7474 51.3626 11.1839 51.3626 11.7294C51.3626 12.275 51.4173 12.7114 51.5265 13.1478C51.6358 13.5297 51.7451 13.8571 51.9637 14.0753C52.1276 14.2935 52.3462 14.4026 52.5647 14.4026C52.8379 14.4026 53.0565 14.2935 53.2204 14.0753C53.3843 13.8571 53.5483 13.5297 53.6575 13.1478C53.7668 12.7114 53.8215 12.275 53.8215 11.7294C53.8215 11.1839 53.8215 10.6929 53.7122 10.311ZM47.3192 10.311C47.2099 9.92908 47.1006 9.60175 46.882 9.38352C46.7181 9.1653 46.4996 9.05619 46.2264 9.05619C45.9532 9.05619 45.7346 9.1653 45.5707 9.38352C45.4067 9.60175 45.2428 9.92908 45.1335 10.311C45.0243 10.7474 44.9696 11.1839 44.9696 11.7294C44.9696 12.275 45.0243 12.7114 45.1335 13.1478C45.2428 13.5297 45.3521 13.8571 45.5707 14.0753C45.7346 14.2935 45.9531 14.4026 46.1717 14.4026C46.4449 14.4026 46.6635 14.2935 46.8274 14.0753C46.9913 13.8571 47.1553 13.5297 47.2645 13.1478C47.3738 12.7114 47.4285 12.275 47.4285 11.7294C47.4831 11.1839 47.4285 10.6929 47.3192 10.311ZM53.7122 10.311C53.6029 9.92908 53.4936 9.60175 53.2751 9.38352C53.1111 9.1653 52.8926 9.05619 52.6194 9.05619C52.3462 9.05619 52.1276 9.1653 51.9637 9.38352C51.7997 9.60175 51.6358 9.92908 51.5265 10.311C51.4173 10.7474 51.3626 11.1839 51.3626 11.7294C51.3626 12.275 51.4173 12.7114 51.5265 13.1478C51.6358 13.5297 51.7451 13.8571 51.9637 14.0753C52.1276 14.2935 52.3462 14.4026 52.5647 14.4026C52.8379 14.4026 53.0565 14.2935 53.2204 14.0753C53.3843 13.8571 53.5483 13.5297 53.6575 13.1478C53.7668 12.7114 53.8215 12.275 53.8215 11.7294C53.8215 11.1839 53.8215 10.6929 53.7122 10.311ZM47.3192 10.311C47.2099 9.92908 47.1006 9.60175 46.882 9.38352C46.7181 9.1653 46.4996 9.05619 46.2264 9.05619C45.9532 9.05619 45.7346 9.1653 45.5707 9.38352C45.4067 9.60175 45.2428 9.92908 45.1335 10.311C45.0243 10.7474 44.9696 11.1839 44.9696 11.7294C44.9696 12.275 45.0243 12.7114 45.1335 13.1478C45.2428 13.5297 45.3521 13.8571 45.5707 14.0753C45.7346 14.2935 45.9531 14.4026 46.1717 14.4026C46.4449 14.4026 46.6635 14.2935 46.8274 14.0753C46.9913 13.8571 47.1553 13.5297 47.2645 13.1478C47.3738 12.7114 47.4285 12.275 47.4285 11.7294C47.4831 11.1839 47.4285 10.6929 47.3192 10.311Z" fill="#D4B669"></path></svg> 