<?xml version="1.0" encoding="UTF-8"?> <svg xmlns="http://www.w3.org/2000/svg" width="40" height="40" viewBox="0 0 40 40" fill="none"><g clip-path="url(#clip0_1336_1905)"><path d="M20 40C31.0457 40 40 31.0457 40 20C40 8.95433 31.0457 0 20 0C8.95433 0 0 8.95433 0 20C0 31.0457 8.95433 40 20 40Z" fill="url(#paint0_linear_1336_1905)"></path><path d="M7.44869 20.9785C9.78667 19.6906 12.3965 18.6158 14.835 17.5355C19.0302 15.766 23.242 14.0271 27.4963 12.4083C28.3241 12.1325 29.8113 11.8627 29.9572 13.0894C29.8773 14.8257 29.5488 16.5519 29.3235 18.2781C28.7516 22.0741 28.0906 25.8571 27.446 29.6406C27.2239 30.9008 25.6452 31.5532 24.635 30.7467C22.2073 29.1069 19.761 27.4831 17.3643 25.8052C16.5793 25.0075 17.3073 23.8619 18.0084 23.2922C20.0079 21.3217 22.1284 19.6476 24.0234 17.5752C24.5346 16.3408 23.0243 17.3811 22.5261 17.6999C19.7888 19.5862 17.1184 21.5877 14.2324 23.2456C12.7583 24.0571 11.0401 23.3636 9.56659 22.9107C8.2454 22.3637 6.30952 21.8126 7.44869 20.9785Z" fill="white"></path></g><defs><linearGradient id="paint0_linear_1336_1905" x1="15.0023" y1="1.668" x2="5.00233" y2="25" gradientUnits="userSpaceOnUse"><stop stop-color="#37AEE2"></stop><stop offset="1" stop-color="#1E96C8"></stop></linearGradient><clipPath id="clip0_1336_1905"><rect width="40" height="40" fill="white"></rect></clipPath></defs></svg> 